HIERARCHY
ROOT SpineBase
{
  OFFSET 0.000000 0.000000 0.000000
  CHANNELS 6 Xposition Yposition Zposition Zrotation Xrotation Yrotation
  JOINT SpineMid
  {
    OFFSET 0.000000 31.848700 0.000000
    CHANNELS 3 Zrotation Xrotation Yrotation
    JOINT SpineShoulder
    {
      OFFSET 0.076497 23.650724 -0.710212
      CHANNELS 3 Zrotation Xrotation Yrotation
      JOINT Neck
      {
        OFFSET 0.057821 7.826069 -0.558707
        CHANNELS 3 Zrotation Xrotation Yrotation
        JOINT Head
        {
          OFFSET -4.993892 14.097900 -1.313244
          CHANNELS 3 Zrotation Xrotation Yrotation
          End Site
          {
            OFFSET 0 0 0
          }
        }
      }
      JOINT ShoulderLeft
      {
        OFFSET -16.983712 -5.939666 6.753592
        CHANNELS 3 Zrotation Xrotation Yrotation
        JOINT ElbowLeft
        {
          OFFSET -1.115459 -28.105497 3.245196
          CHANNELS 3 Zrotation Xrotation Yrotation
          JOINT WristLeft
          {
            OFFSET -0.443753 -22.944865 -5.459623
            CHANNELS 3 Zrotation Xrotation Yrotation
            JOINT HandLeft
            {
              OFFSET 0.108993 -4.728102 -1.795123
              CHANNELS 3 Zrotation Xrotation Yrotation
              JOINT HandTipLeft
              {
                OFFSET 0.971529 -6.282021 -1.753204
                CHANNELS 3 Zrotation Xrotation Yrotation
                End Site
                {
                  OFFSET 0 0 0
                }
              }
              JOINT ThumbLeft
              {
                OFFSET -2.567323 -1.168125 -2.169096
                CHANNELS 3 Zrotation Xrotation Yrotation
                End Site
                {
                  OFFSET 0 0 0
                }
              }
            }
          }
        }
      }
      JOINT ShoulderRight
      {
        OFFSET 14.557941 -3.248197 -8.468814
        CHANNELS 3 Zrotation Xrotation Yrotation
        JOINT ElbowRight
        {
          OFFSET 7.675993 -25.669406 -1.451445
          CHANNELS 3 Zrotation Xrotation Yrotation
          JOINT WristRight
          {
            OFFSET -0.633089 -23.095654 -7.637337
            CHANNELS 3 Zrotation Xrotation Yrotation
            JOINT HandRight
            {
              OFFSET -1.888816 -6.257911 -1.248914
              CHANNELS 3 Zrotation Xrotation Yrotation
              JOINT HandTipRight
              {
                OFFSET -0.775223 -6.379334 -2.310092
                CHANNELS 3 Zrotation Xrotation Yrotation
                End Site
                {
                  OFFSET 0 0 0
                }
              }
              JOINT ThumbRight
              {
                OFFSET 2.487402 -1.913943 -2.323505
                CHANNELS 3 Zrotation Xrotation Yrotation
                End Site
                {
                  OFFSET 0 0 0
                }
              }
            }
          }
        }
      }
    }
  }
  JOINT HipLeft
  {
    OFFSET -6.886599 0.227906 -0.920580
    CHANNELS 3 Zrotation Xrotation Yrotation
    JOINT KneeLeft
    {
      OFFSET 4.451174 -34.647168 3.419676
      CHANNELS 3 Zrotation Xrotation Yrotation
      JOINT AnkleLeft
      {
        OFFSET 7.271706 -37.350312 6.323258
        CHANNELS 3 Zrotation Xrotation Yrotation
        JOINT FootLeft
        {
          OFFSET 1.598882 -5.542651 -5.969178
          CHANNELS 3 Zrotation Xrotation Yrotation
          End Site
          {
            OFFSET 0 0 0
          }
        }
      }
    }
  }
  JOINT HipRight
  {
    OFFSET 7.388375 1.450777 -6.275989
    CHANNELS 3 Zrotation Xrotation Yrotation
    JOINT KneeRight
    {
      OFFSET 7.268432 -32.215523 -0.074969
      CHANNELS 3 Zrotation Xrotation Yrotation
      JOINT AnkleRight
      {
        OFFSET 2.532621 -38.010178 7.266105
        CHANNELS 3 Zrotation Xrotation Yrotation
        JOINT FootRight
        {
          OFFSET -3.944635 -6.707437 -2.241079
          CHANNELS 3 Zrotation Xrotation Yrotation
          End Site
          {
            OFFSET 0 0 0
          }
        }
      }
    }
  }
}
MOTION
Frames: 5
Frame Time: 0.033333
-24.484989 78.207390 347.989048 -0.000000 0.000000 20.564116 -0.000000 0.000000 -20.564116 -0.000000 0.000000 0.000000 -0.000000 0.000000 0.000000 0.000000 0.000000 0.000000 -0.000000 0.000000 0.000000 -0.000000 0.000000 0.000000 -0.000000 0.000000 0.000000 -0.000000 0.000000 0.000000 0.000000 0.000000 0.000000 0.000000 0.000000 0.000000 -0.000000 0.000000 0.000000 -0.000000 0.000000 0.000000 -0.000000 0.000000 0.000000 -0.000000 0.000000 0.000000 0.000000 0.000000 0.000000 0.000000 0.000000 0.000000 -0.000000 0.000000 -20.564116 -0.000000 0.000000 0.000000 -0.000000 0.000000 0.000000 0.000000 0.000000 0.000000 -0.000000 0.000000 -20.564116 -0.000000 0.000000 0.000000 -0.000000 0.000000 0.000000 0.000000 0.000000 0.000000
-24.431830 78.203543 347.921066 0.054945 0.106843 20.526956 -0.088921 -0.080793 -20.527070 -0.000000 0.000000 0.000000 -0.000000 0.000000 0.000000 0.000000 0.000000 0.000000 -0.000000 0.000000 0.000000 -0.000000 0.000000 0.000000 0.048653 -2.213384 -0.069068 -1.780913 2.727244 0.708145 0.000000 0.000000 0.000000 0.000000 0.000000 0.000000 -0.000000 0.000000 0.000000 -0.000000 0.000000 0.000000 0.826649 -0.762990 0.071069 -0.250382 -4.042001 0.336688 0.000000 0.000000 0.000000 0.000000 0.000000 0.000000 -0.088921 -0.080793 -20.527070 -0.000000 0.000000 0.000000 1.323281 0.326696 -1.326158 0.000000 0.000000 0.000000 -0.088921 -0.080793 -20.527070 -0.000000 0.000000 0.000000 0.860613 -1.614397 0.680260 0.000000 0.000000 0.000000
-24.386204 78.198798 347.861557 0.100357 0.201413 20.495286 -0.164526 -0.153526 -20.495683 -0.000000 0.000000 0.000000 -0.000000 0.000000 0.000000 0.000000 0.000000 0.000000 -0.000000 0.000000 0.000000 -0.000000 0.000000 0.000000 0.111445 -3.716464 -0.125948 -2.915240 4.555393 1.245486 0.000000 0.000000 0.000000 0.000000 0.000000 0.000000 -0.000000 0.000000 0.000000 -0.000000 0.000000 0.000000 1.336755 -1.259835 0.128911 -0.275884 -7.148511 0.609280 0.000000 0.000000 0.000000 0.000000 0.000000 0.000000 -0.164526 -0.153526 -20.495683 -0.000000 0.000000 0.000000 2.368146 0.479109 -2.397002 0.000000 0.000000 0.000000 -0.164526 -0.153526 -20.495683 -0.000000 0.000000 0.000000 1.451658 -2.685984 1.146378 0.000000 0.000000 0.000000
-24.348111 78.193152 347.810521 0.136234 0.283705 20.469041 -0.226846 -0.218150 -20.469810 -0.000000 0.000000 0.000000 -0.000000 0.000000 0.000000 0.000000 0.000000 0.000000 -0.000000 0.000000 0.000000 -0.000000 0.000000 0.000000 0.189548 -4.523597 -0.171375 -3.422962 5.524393 1.522153 0.000000 0.000000 0.000000 0.000000 0.000000 0.000000 -0.000000 0.000000 0.000000 -0.000000 0.000000 0.000000 1.516665 -1.479776 0.164629 -0.072827 -9.377521 0.799556 0.000000 0.000000 0.000000 0.000000 0.000000 0.000000 -0.226846 -0.218150 -20.469810 -0.000000 0.000000 0.000000 3.135105 0.475521 -3.212476 0.000000 0.000000 0.000000 -0.226846 -0.218150 -20.469810 -0.000000 0.000000 0.000000 1.790933 -3.277673 1.407251 0.000000 0.000000 0.000000
-24.317549 78.186607 347.767958 0.162577 0.353717 20.448167 -0.275910 -0.274628 -20.449330 -0.000000 0.000000 0.000000 -0.000000 0.000000 0.000000 0.000000 0.000000 0.000000 -0.000000 0.000000 0.000000 0.794227 -0.173069 -0.184530 -0.495937 -4.478864 -0.019996 -3.328752 5.667345 1.504429 0.000000 0.000000 0.000000 0.000000 0.000000 0.000000 -0.000000 0.000000 0.000000 -0.000000 0.000000 0.000000 1.359199 -1.416952 0.174288 0.361120 -10.789451 0.897360 0.000000 0.000000 0.000000 0.000000 0.000000 0.000000 -0.275910 -0.274628 -20.449330 -0.000000 0.000000 0.000000 3.628225 0.330442 -3.776265 0.000000 0.000000 0.000000 -0.275910 -0.274628 -20.449330 -0.000000 0.000000 0.000000 1.890938 -3.427760 1.470079 0.000000 0.000000 0.000000
